PathFileType	4	(X/Y/Z)	D:\TRACE\spotREDO_2-26-24\spot_baseline_3-v60.trc
DataRate	CameraRate	NumFrames	NumMarkers	Units	OrigDataRate	OrigDataStartFrame	OrigNumFrames
100.00	100.00	      24	9	mm	100.00	1	      7000
Frame#	Time	front left toe			Front right toe			aft left toe			aft right toe			Arm			FL body			FR body			AL Body			AR Body			
		X1	Y1	Z1	X2	Y2	Z2	X3	Y3	Z3	X4	Y4	Z4	X5	Y5	Z5	X6	Y6	Z6	X7	Y7	Z7	X8	Y8	Z8	X9	Y9	Z9	

1	0.000	-278.25800	20.14230	-139.47192	195.54230	23.59108	-274.52316	-149.01987	21.40123	366.94550	233.58119	21.66283	228.48395	-87.41503	810.96185	-383.60449	-164.54787	552.77130	-339.15067	-12.58937	556.13782	-376.22617	39.24617	569.73450	520.93134	184.06390	570.07648	488.27063	
2	0.010	-278.26578	20.19629	-139.43779	195.54555	23.53902	-274.51678	-149.04207	21.43701	366.95325	233.55583	21.74600	228.55162	-87.19081	810.96899	-383.55563	-163.60211	552.22815	-338.47900	-12.42223	556.10742	-376.17374	38.96682	569.34943	521.07056	183.78712	569.66919	488.50992	
3	0.020	-278.33508	20.24831	-139.45740	195.58908	23.56045	-274.39926	-149.09895	21.47495	366.89377	233.61992	21.78600	228.59128	-86.93021	810.98779	-383.44995	-163.39667	552.19141	-338.68552	-12.24219	556.05920	-376.12207	38.38828	569.03052	521.18237	183.54688	569.22028	488.61206	
4	0.030	-278.39529	20.24709	-139.44839	195.62654	23.49763	-274.40799	-149.01971	21.34398	366.97415	233.59714	21.75644	228.66545	-86.54340	810.94299	-383.37021	-162.96245	552.12378	-338.54477	-12.03741	556.05060	-376.06543	37.93950	568.70190	521.26276	183.23767	568.74341	488.81232	
5	0.040	-278.44269	20.20243	-139.47632	195.61160	23.49126	-274.39246	-149.06737	21.21215	367.00394	233.51791	21.74442	228.71082	-86.22578	810.92523	-383.27695	-162.78632	552.12854	-338.61108	-11.77869	556.07092	-375.97098	37.35933	568.26410	521.37927	182.73299	568.45850	488.91843	
6	0.050	-278.56314	20.25149	-139.50815	195.63905	23.38402	-274.39362	-149.12027	21.26840	366.96469	233.53273	21.75724	228.73924	-85.79638	810.89600	-383.23026	-162.44698	552.14142	-338.62695	-11.38431	556.05981	-375.91910	36.98832	567.91052	521.45105	182.20961	568.12134	489.09311	
7	0.060	-278.55447	20.30648	-139.50905	195.33273	23.24761	-274.00180	-149.12698	21.32406	366.92581	233.55635	21.75515	228.76869	-85.47748	810.93066	-383.14929	-162.09596	552.13141	-338.67261	-11.15317	556.08527	-375.93549	36.71565	567.60919	521.51697	181.69124	567.92383	489.27301	
8	0.070	-278.59906	20.35321	-139.51610	195.48724	23.66884	-274.38654	-149.15517	21.40895	366.93988	233.54543	21.78116	228.78209	-85.25494	810.98810	-383.06348	-161.90617	552.11621	-338.80423	-10.85823	556.08887	-375.94641	36.42242	567.31079	521.46948	181.39946	567.60980	489.52368	
9	0.080	-278.83228	20.43318	-139.56802	195.49075	23.60734	-274.39389	-149.17787	21.37432	366.90994	233.64180	21.80199	228.85124	-85.13503	810.95648	-383.06494	-161.78282	552.11908	-338.93085	-10.51384	556.01727	-375.99078	35.91713	567.04309	521.47888	181.25035	567.29968	489.63843	
10	0.090	-277.51025	19.54439	-139.42665	195.33994	23.47206	-273.91254	-149.15158	21.25275	366.87619	233.51314	21.77021	228.84464	-84.96194	810.94391	-383.08173	-161.65028	552.01898	-339.08563	-10.29532	555.92932	-376.03494	35.41655	566.75684	521.48584	180.59262	566.94891	489.72742	
11	0.100	-277.42453	19.46146	-139.45534	195.74423	23.45998	-274.18277	-149.16159	21.15762	366.88278	233.49820	21.71177	228.89496	-84.79601	810.89551	-383.06589	-161.49571	551.97797	-339.17511	-10.13479	555.84979	-376.04904	35.02092	566.54559	521.57330	180.28329	566.82861	489.82315	
12	0.110	-277.40631	19.49267	-139.47864	195.43024	23.26652	-273.85632	-149.20982	21.25878	366.81659	233.46770	21.76589	228.84558	-84.59082	810.80621	-383.06659	-161.24706	551.87415	-339.43524	-9.86527	555.78857	-376.09174	34.57358	566.36932	521.59631	179.85367	566.66077	489.94730	
13	0.120	-277.43506	19.54135	-139.53949	195.40712	23.17696	-273.83792	-149.18678	21.27545	366.78641	233.51146	21.77513	228.88664	-84.24751	810.68665	-383.12747	-160.88734	551.73669	-339.73962	-9.54033	555.72955	-376.11588	34.12378	566.22772	521.59827	179.35765	566.46649	490.04202	
14	0.130	-277.46762	19.52065	-139.58849	195.55821	23.17755	-273.70673	-149.22922	21.29887	366.75168	233.54077	21.79746	228.92789	-83.94830	810.62677	-383.26791	-160.49870	551.64984	-339.96475	-9.24258	555.68652	-376.14716	33.80561	566.00012	521.56055	179.00551	566.28345	490.14420	
15	0.140	-277.44614	19.53121	-139.58913	195.28340	23.30695	-273.81900	-149.26393	21.19186	366.80609	233.48015	21.76723	228.97696	-83.69183	810.57568	-383.31329	-160.51450	551.73596	-340.27045	-8.90916	555.62036	-376.22803	33.37721	565.75189	521.56866	178.71777	566.16565	490.15985	
16	0.150	-277.37073	19.46157	-139.62608	195.51427	23.19442	-273.64093	-149.23247	21.11138	366.77408	233.42665	21.76112	228.99295	-83.49361	810.58136	-383.50858	-160.48045	551.80255	-340.40549	-8.62677	555.60931	-376.27359	32.71788	565.52112	521.50476	178.10513	565.94476	490.22446	
17	0.160	-277.46182	19.57978	-139.75528	195.57791	23.19309	-273.55624	-149.28676	21.14597	366.73767	233.41699	21.83751	228.99739	-83.25105	810.54285	-383.62024	-160.27696	551.68414	-340.61099	-8.39032	555.61664	-376.33487	32.35125	565.30743	521.45398	177.66467	565.80280	490.20261	
18	0.170	-277.44604	19.58613	-139.81374	195.50870	23.29516	-273.55621	-149.34688	21.19649	366.71347	233.45285	21.85134	229.07164	-82.95309	810.44403	-383.76318	-160.08891	551.63892	-340.79831	-8.07116	555.30127	-376.07706	32.05535	565.22906	521.43066	177.33737	565.73383	490.25101	
19	0.180	-277.46649	19.66238	-139.85364	195.34062	23.29647	-273.59042	-149.33475	21.21394	366.66464	233.42162	21.92863	229.07155	-82.61507	810.36456	-383.93842	-159.83890	551.51257	-340.94531	-7.77668	555.30792	-376.15689	31.69975	565.13788	521.36420	176.70905	565.61627	490.26215	
20	0.190	-277.45355	19.62127	-139.85225	195.67267	23.02863	-273.46844	-149.34210	21.21723	366.65924	233.56934	21.93605	229.10471	-82.27094	810.24829	-384.09052	-159.45042	551.41016	-341.26840	-7.48750	555.29443	-376.23691	31.32517	564.99518	521.26849	176.34392	565.51611	490.33508	
21	0.200	-277.50095	19.61629	-139.91106	195.45801	23.12404	-273.51517	-149.32500	21.12884	366.63333	233.42400	21.91490	229.12630	-82.10252	810.13007	-384.20267	-159.05574	551.30914	-341.34921	-7.13978	555.26129	-376.34683	30.70481	564.88196	521.16620	175.50131	564.93701	489.81995	
22	0.210	-277.48105	19.66811	-140.00305	195.50386	23.07845	-273.47046	-149.32387	21.04978	366.64673	233.44206	21.91993	229.18108	-81.89555	810.09039	-384.28879	-158.86961	551.22058	-341.62784	-6.97167	555.55823	-376.81290	30.00012	564.71808	521.07776	175.00412	565.06299	490.28232	
23	0.220	-277.45541	19.72253	-140.08504	195.55171	23.06393	-273.44864	-149.28543	20.99182	366.59857	233.45728	21.92941	229.21094	-81.65678	810.11279	-384.37561	-158.68294	551.14386	-341.85730	-6.84723	555.53186	-376.90375	29.52818	564.64319	521.02838	174.44681	564.94128	490.20908	
24	0.230	-277.48483	19.76958	-140.17615	195.56815	23.07726	-273.43161	-149.30800	21.01762	366.60956	233.40799	21.96676	229.27670	-81.51332	810.06720	-384.44604	-158.67026	551.21667	-342.09448	-6.71451	555.50018	-376.96979	29.11544	564.57227	520.97961	173.57309	564.78485	489.95322	
